<svg width="46" height="46" viewBox="0 0 46 46" fill="none" xmlns="http://www.w3.org/2000/svg">
<path d="M22.0018 39.1723C8.60242 32.4962 6.64951 25.846 6.10935 12.4458C-0.562569 20.9263 5.09368 30.0908 14.9318 36.8222C7.18479 32.7595 4.23053 28.2291 0.572883 20.5116C-1.06016 23.8175 -0.124133 33.8349 18.2776 39.4312C9.78982 38.0725 6.51519 35.6882 1.44916 30.5888C2.30554 35.3285 4.27664 40.1179 19.7514 40.4867C13.5919 41.1225 10.4453 40.6193 5.33266 38.3159C8.08099 42.976 12.0456 43.969 21.1255 41.4227C16.8613 43.2288 14.5389 43.6122 10.4708 43.6134C14.0761 46.0093 16.3478 45.9104 20.767 43.6134C19.8023 44.4995 19.2571 44.9181 18.2776 45.5452C20.07 46.0829 22.4599 44.2109 22.4599 44.2109C22.5794 45.3461 22.9378 45.3461 22.9378 45.3461V37.5791L22.0018 39.1723Z" fill="#679A62"/>
<path fill-rule="evenodd" clip-rule="evenodd" d="M6.12679 12.3911L6.12897 12.445C6.39904 19.145 7.02231 24.1535 9.25065 28.3212C11.4768 32.4848 15.3063 35.8119 21.9938 39.1462L22.9575 37.5059V45.366H22.9376V45.3461C22.9376 45.366 22.9375 45.366 22.9375 45.366H22.9374H22.9373L22.9368 45.366C22.9365 45.366 22.936 45.366 22.9355 45.366C22.9348 45.3659 22.934 45.3659 22.933 45.3658C22.9325 45.3657 22.932 45.3657 22.9314 45.3656C22.9281 45.3653 22.9234 45.3646 22.9176 45.3633C22.9061 45.3608 22.89 45.3558 22.8708 45.3462C22.8322 45.3269 22.7813 45.2892 22.7274 45.216C22.622 45.0731 22.5047 44.7941 22.4436 44.2482C22.4256 44.2619 22.3992 44.2816 22.3651 44.3064C22.2961 44.3567 22.1955 44.4279 22.0692 44.5116C21.8166 44.6791 21.4611 44.8968 21.0493 45.0976C20.2271 45.4988 19.1755 45.8355 18.2716 45.5643L18.2301 45.5519L18.2666 45.5285C19.2069 44.9265 19.7463 44.517 20.6425 43.7002C18.4979 44.804 16.8576 45.3811 15.3136 45.3932C13.737 45.4056 12.2638 44.8291 10.4595 43.6301L10.4046 43.5936L10.4705 43.5936C14.4433 43.5923 16.749 43.2267 20.8285 41.5259C16.4446 42.7322 13.2697 43.0933 10.8504 42.5913C8.37399 42.0774 6.69153 40.6598 5.31522 38.3261L5.28334 38.2721L5.34055 38.2978C7.89596 39.4491 9.95894 40.15 12.1522 40.4839C14.2705 40.8064 16.5114 40.7866 19.4361 40.4985C11.8933 40.287 7.61094 39.0075 5.10641 37.193C2.56593 35.3526 1.85776 32.9639 1.42927 30.5924L1.4179 30.5294L1.463 30.5748C3.99574 33.1242 6.0793 34.9935 8.58965 36.3954C11.0427 37.7654 13.9045 38.6896 17.993 39.3648C-0.144699 33.751 -1.07818 23.8085 0.554742 20.5028L0.572969 20.4659L0.590594 20.5031C2.41927 24.3616 4.07138 27.4216 6.23387 30.0248C8.33951 32.5594 10.9297 34.6616 14.6393 36.645C9.85224 33.3198 6.08806 29.4151 4.31075 25.2978C2.49816 21.0989 2.75271 16.6798 6.09342 12.4335L6.12679 12.3911ZM22.4596 44.2109L22.4473 44.1952L22.4756 44.1731L22.4794 44.2088C22.539 44.7749 22.6579 45.0546 22.7594 45.1924C22.81 45.2611 22.8562 45.2944 22.8886 45.3106C22.9001 45.3163 22.9099 45.3199 22.9176 45.3222V37.6523L22.0093 39.1985L21.9927 39.1902C15.291 35.8511 11.4489 32.5172 9.21552 28.34C6.98853 24.1748 6.36262 19.1739 6.09136 12.5007C2.79184 16.7219 2.54627 21.1098 4.34732 25.2821C6.15506 29.4698 10.0253 33.4412 14.9428 36.8058L14.9223 36.8399C11.0468 34.8075 8.36932 32.6577 6.20323 30.0502C4.04442 27.4515 2.39428 24.3991 0.57235 20.5576C-1.02726 23.8844 -0.044987 33.8383 18.2831 39.4122L18.2742 39.4509C14.0289 38.7713 11.0858 37.835 8.57024 36.4302C6.06979 35.0338 3.9929 33.1752 1.47993 30.6483C1.90903 32.9956 2.62436 35.3457 5.12978 37.1608C7.65898 38.9931 12.0154 40.2825 19.7515 40.4668L19.7531 40.5066C16.6726 40.8246 14.3442 40.8579 12.1462 40.5233C9.96453 40.1912 7.9124 39.4968 5.38158 38.36C6.74763 40.6541 8.41469 42.0452 10.8585 42.5523C13.3233 43.0637 16.5806 42.6766 21.1199 41.4036L21.133 41.4411C16.8894 43.2385 14.5665 43.6279 10.5366 43.6333C12.3125 44.8053 13.7638 45.3656 15.3132 45.3534C16.8793 45.3411 18.5486 44.744 20.7576 43.5958L20.7802 43.6281C19.8269 44.5037 19.2825 44.9236 18.3251 45.5383C19.2042 45.7823 20.224 45.456 21.0319 45.0618C21.4416 44.8619 21.7956 44.6452 22.0472 44.4784C22.1729 44.3951 22.273 44.3242 22.3417 44.2742C22.376 44.2492 22.4025 44.2295 22.4203 44.2159C22.4292 44.2092 22.436 44.204 22.4405 44.2005L22.4456 44.1966L22.4469 44.1956L22.4472 44.1953L22.4473 44.1952C22.4473 44.1952 22.4473 44.1952 22.4596 44.2109Z" fill="#679A62"/>
<path d="M23.8976 39.0786C37.3583 32.406 39.3202 25.7593 39.8628 12.3662C46.5652 20.8422 40.8831 30.0019 31 36.7298C38.7824 32.6692 41.7502 28.1412 45.4246 20.4278C47.0651 23.7319 46.1248 33.744 27.6389 39.3374C36.1655 37.9794 39.4551 35.5964 44.5443 30.4996C43.684 35.2369 41.7039 40.0238 26.1584 40.3923C32.346 41.0278 35.507 40.5249 40.643 38.2227C37.8821 42.8804 33.8994 43.8728 24.7779 41.3279C29.0616 43.133 31.3947 43.5161 35.4814 43.5174C31.8596 45.912 29.5776 45.8132 25.1381 43.5174C26.1072 44.403 26.6549 44.8214 27.6389 45.4482C25.8383 45.9856 23.4375 44.1146 23.4375 44.1146C23.3175 45.2491 22.9573 45.2491 22.9573 45.2491V37.4862L23.8976 39.0786Z" fill="#679A62"/>
<path fill-rule="evenodd" clip-rule="evenodd" d="M39.8454 12.3115L39.8432 12.3652C39.5719 19.0617 38.9458 24.0675 36.7072 28.233C34.4709 32.3944 30.6238 35.7198 23.9057 39.0524L22.9377 37.4132V45.2689H22.9576V45.249C22.9576 45.2608 22.9576 45.2656 22.9577 45.2675C22.9577 45.2689 22.9577 45.2689 22.9577 45.2689H22.9578H22.9579L22.9584 45.2689C22.9587 45.2689 22.9591 45.2689 22.9597 45.2688C22.9607 45.2688 22.9621 45.2687 22.9638 45.2685C22.9671 45.2682 22.9718 45.2675 22.9776 45.2662C22.9892 45.2637 23.0053 45.2587 23.0246 45.2491C23.0634 45.2298 23.1145 45.1922 23.1687 45.119C23.2745 44.9761 23.3924 44.6973 23.4538 44.1516C23.4719 44.1652 23.4984 44.185 23.5328 44.2099C23.6021 44.2601 23.7032 44.3313 23.8301 44.415C24.0838 44.5823 24.4409 44.7999 24.8546 45.0007C25.6806 45.4016 26.7369 45.7381 27.6449 45.4671L27.6866 45.4546L27.6499 45.4312C26.7052 44.8295 26.1634 44.4202 25.263 43.6038C27.4175 44.7072 29.0654 45.2839 30.6165 45.2961C32.2002 45.3085 33.6801 44.7323 35.4927 43.5339L35.5479 43.4974L35.4817 43.4973C31.4908 43.4961 29.1745 43.1307 25.0763 41.4308C29.4803 42.6365 32.6696 42.9974 35.1 42.4956C37.5877 41.982 39.2778 40.5652 40.6605 38.2327L40.6925 38.1787L40.6352 38.2044C38.0681 39.3551 35.9957 40.0556 33.7924 40.3893C31.6643 40.7116 29.4132 40.6919 26.4752 40.4039C34.0524 40.1925 38.3543 38.9137 40.8702 37.1002C43.4223 35.2607 44.1337 32.8733 44.5642 30.503L44.5756 30.4402L44.5305 30.4854C41.9862 33.0335 39.8931 34.9018 37.3712 36.303C34.9069 37.6722 32.032 38.596 27.9249 39.2708C46.1453 33.66 47.0831 23.7227 45.4427 20.4187L45.4245 20.3821L45.4069 20.419C43.5699 24.2754 41.9102 27.3339 39.7378 29.9357C37.6225 32.4691 35.0204 34.5702 31.2936 36.5526C36.1026 33.2292 39.8841 29.3264 41.6695 25.2113C43.4904 21.0145 43.2347 16.5977 39.8787 12.3537L39.8454 12.3115ZM23.4378 44.1144L23.45 44.0987L23.4217 44.0767L23.418 44.1123C23.3581 44.678 23.2387 44.9576 23.1367 45.0953C23.0858 45.164 23.0394 45.1972 23.0069 45.2134C22.9953 45.2192 22.9854 45.2228 22.9775 45.2251V37.559L23.8902 39.1045L23.9068 39.0963C30.639 35.7591 34.4987 32.4268 36.7423 28.2519C38.9795 24.0888 39.6083 19.0904 39.8808 12.4207C43.1956 16.6397 43.4423 21.0254 41.633 25.1955C39.817 29.381 35.9291 33.3503 30.989 36.7131L31.0095 36.7473C34.9026 34.7159 37.5924 32.5672 39.7684 29.9612C41.9371 27.3638 43.5948 24.3129 45.4251 20.4734C47.0321 23.7981 46.0458 33.747 27.6334 39.3182L27.6423 39.3569C31.907 38.6777 34.8635 37.7419 37.3906 36.3378C39.9025 34.9421 41.9889 33.0844 44.5135 30.5588C44.0825 32.9049 43.3639 35.2537 40.8469 37.0679C38.3061 38.8993 33.9297 40.188 26.1582 40.3723L26.1567 40.412C29.2513 40.7298 31.5903 40.7631 33.7983 40.4287C35.99 40.0967 38.0515 39.4027 40.594 38.2664C39.2217 40.5594 37.547 41.9498 35.092 42.4566C32.6158 42.9678 29.3436 42.5808 24.7836 41.3085L24.7705 41.3461C29.0335 43.1425 31.367 43.5317 35.4153 43.5371C33.6314 44.7085 32.1734 45.2684 30.6168 45.2562C29.0435 45.2439 27.3666 44.6471 25.1475 43.4996L25.1249 43.5319C26.0826 44.407 26.6295 44.8267 27.5912 45.4411C26.708 45.685 25.6835 45.3587 24.8719 44.9648C24.4603 44.765 24.1047 44.5484 23.852 44.3817C23.7257 44.2984 23.6251 44.2276 23.5561 44.1776C23.5217 44.1526 23.4951 44.1329 23.4772 44.1194C23.4682 44.1126 23.4614 44.1074 23.4568 44.1039L23.4535 44.1014L23.4517 44.1L23.4501 44.0988L23.45 44.0987C23.45 44.0987 23.45 44.0987 23.4378 44.1144Z" fill="#679A62"/>
<path d="M14.6338 18.5995V32.8788C15.7918 34.1696 16.3127 34.523 17.1232 34.8106V18.5995C17.4867 17.8395 17.7658 17.5516 18.6965 17.3847H27.3C28.1492 17.557 28.3884 17.8009 28.8334 18.5995V34.8106C30.0852 34.0981 30.7032 33.6684 31.283 32.8788V18.5995C31.0327 16.4101 30.3914 15.4974 27.8775 15.0347H17.7804C15.6733 15.537 15.0415 16.3804 14.6338 18.5995Z" fill="#679A62"/>
<path d="M9.24599 25.6439L9.27571 25.7096V20.1731C9.76859 19.0829 10.2072 18.709 11.2075 18.3608H12.98C12.967 17.6114 13.0903 17.1602 13.5973 16.2896C10.0168 16.0637 8.53393 16.6071 7.28418 19.3566C7.86456 22.5945 8.36667 23.7029 9.24599 25.6439Z" fill="#679A62"/>
<path d="M36.5395 25.644L36.5093 25.7097V20.1651C36.0086 19.0734 35.5631 18.6989 34.547 18.3502H32.7466C32.7598 17.5997 32.6345 17.1479 32.1195 16.276C35.7565 16.0498 37.2628 16.594 38.5322 19.3474C37.9427 22.5901 37.4327 23.7001 36.5395 25.644Z" fill="#679A62"/>
<path fill-rule="evenodd" clip-rule="evenodd" d="M22.9578 10.7328C24.0151 10.7328 24.9095 9.86176 24.9095 8.74124C24.9095 7.62072 24.0151 6.74971 22.9578 6.74971C21.9004 6.74971 21.0061 7.62072 21.0061 8.74124C21.0061 9.86176 21.9004 10.7328 22.9578 10.7328ZM22.9578 13.1226C25.3555 13.1226 27.2993 11.161 27.2993 8.74124C27.2993 6.32147 25.3555 4.35986 22.9578 4.35986C20.56 4.35986 18.6162 6.32147 18.6162 8.74124C18.6162 11.161 20.56 13.1226 22.9578 13.1226Z" fill="#679A62"/>
<path fill-rule="evenodd" clip-rule="evenodd" d="M14.1751 12.3661C14.8229 12.3661 15.39 11.8276 15.39 11.1114C15.39 10.3953 14.8229 9.85677 14.1751 9.85677C13.5273 9.85677 12.9603 10.3953 12.9603 11.1114C12.9603 11.8276 13.5273 12.3661 14.1751 12.3661ZM14.1751 14.3576C15.946 14.3576 17.3815 12.9043 17.3815 11.1114C17.3815 9.31861 15.946 7.86523 14.1751 7.86523C12.4043 7.86523 10.9688 9.31861 10.9688 11.1114C10.9688 12.9043 12.4043 14.3576 14.1751 14.3576Z" fill="#679A62"/>
<path fill-rule="evenodd" clip-rule="evenodd" d="M31.7406 12.3661C32.3884 12.3661 32.9554 11.8276 32.9554 11.1114C32.9554 10.3953 32.3884 9.85677 31.7406 9.85677C31.0927 9.85677 30.5257 10.3953 30.5257 11.1114C30.5257 11.8276 31.0927 12.3661 31.7406 12.3661ZM31.7406 14.3576C33.5114 14.3576 34.9469 12.9043 34.9469 11.1114C34.9469 9.31861 33.5114 7.86523 31.7406 7.86523C29.9697 7.86523 28.5342 9.31861 28.5342 11.1114C28.5342 12.9043 29.9697 14.3576 31.7406 14.3576Z" fill="#679A62"/>
<path d="M7.10547 3.6832V16.5684C7.84515 15.793 8.30679 15.4756 9.23641 15.1744V5.25651C19.9849 0.914422 26.0109 0.811173 36.7594 5.25651V15.1744C37.7406 15.6187 38.1923 15.9161 38.751 16.5684V3.6832C26.0849 -1.31479 19.1701 -1.08595 7.10547 3.6832Z" fill="#679A62"/>
<path fill-rule="evenodd" clip-rule="evenodd" d="M7.12479 3.69663V16.5187C7.4795 16.1494 7.77238 15.8853 8.08815 15.6769C8.41096 15.4638 8.75687 15.3094 9.2159 15.1598V5.24297L9.22836 5.23794C14.6036 3.06648 18.8 1.95412 22.9973 1.94121C27.1946 1.92829 31.391 3.01484 36.7665 5.238L36.7788 5.24309V15.1614C37.733 15.5943 38.1873 15.8901 38.7305 16.5148V3.69664C32.4047 1.2015 27.5155 0.0117683 22.7022 0.0403329C17.8891 0.0688966 13.1501 1.3157 7.12479 3.69663ZM22.702 0.000502852C27.5256 -0.028123 32.4235 1.16511 38.7577 3.66457L38.7703 3.66954V16.6222L38.7353 16.5813C38.1791 15.9319 37.7302 15.636 36.7506 15.1924L36.7389 15.1871V5.26972C31.3717 3.05098 27.1841 1.96815 22.9974 1.98104C18.8106 1.99392 14.623 3.10252 9.25573 5.26984V15.1887L9.24196 15.1932C8.77824 15.3435 8.43221 15.4975 8.11009 15.7101C7.78784 15.9228 7.4887 16.1948 7.11929 16.5821L7.08496 16.6181V3.66955L7.09756 3.66457C13.1309 1.2796 17.8784 0.0291286 22.702 0.000502852Z" fill="#679A62"/>
</svg>
